<svg width="28" height="28" viewBox="0 0 28 28" fill="none" xmlns="http://www.w3.org/2000/svg">
    <path d="M14 3a8.501 8.501 0 0 1 8.497 8.246l.004.255v4.612l1.414 3.644c.038.098.064.201.077.305l.01.158a1.28 1.28 0 0 1-1.15 1.273l-.13.007-5.22.001a3.501 3.501 0 0 1-6.998.192l-.006-.194-5.223.001a1.28 1.28 0 0 1-1.234-1.62l.04-.124 1.417-3.644v-4.61A8.501 8.501 0 0 1 14 3zm1.996 18.65L16 21.5 12 21.501a2.001 2.001 0 0 0 3.997.15zM14 4.5a7.001 7.001 0 0 0-6.997 6.76l-.004.241v4.752a.75.75 0 0 1-.023.184l-.028.088L5.596 20H22.4l-1.348-3.474a.748.748 0 0 1-.045-.18l-.006-.092v-4.752A7.001 7.001 0 0 0 14 4.5z" fill="#fff"/>
</svg>
