<svg width="32" height="32" viewBox="0 0 32 32" fill="none" xmlns="http://www.w3.org/2000/svg">
    <path d="M18.65 2a3.15 3.15 0 0 1 3.143 2.934l.007.216a3.2 3.2 0 0 0-.02-.35h2.47a3.15 3.15 0 0 1 3.15 3.15v18.9A3.15 3.15 0 0 1 24.25 30H8.15A3.15 3.15 0 0 1 5 26.85V7.95A3.15 3.15 0 0 1 8.15 4.8h2.47a3.155 3.155 0 0 0-.018.247l-.002.103A3.15 3.15 0 0 1 13.75 2h4.9zm0 6.3h-4.9a3.148 3.148 0 0 1-2.65-1.446l.03.046H8.15c-.58 0-1.05.47-1.05 1.05v18.9c0 .58.47 1.05 1.05 1.05h16.1c.58 0 1.05-.47 1.05-1.05V7.95c0-.58-.47-1.05-1.05-1.05h-2.98l.03-.046A3.148 3.148 0 0 1 18.65 8.3zm0-4.2h-4.9a1.05 1.05 0 1 0 0 2.1h4.9a1.05 1.05 0 1 0 0-2.1zM10.6 19.5h5.6a1.05 1.05 0 1 0 0-2.1h-5.6a1.05 1.05 0 1 0 0 2.1zm0-5.6h11.2a1.05 1.05 0 1 0 0-2.1H10.6a1.05 1.05 0 1 0 0 2.1zm0 11.2H19a1.05 1.05 0 1 0 0-2.1h-8.4a1.05 1.05 0 1 0 0 2.1z" fill="#fff"/>
</svg>
