<svg width="32" height="32" viewBox="0 0 32 32" fill="none" xmlns="http://www.w3.org/2000/svg">
    <path d="m28.325 3.26.213.202.202.213a4.99 4.99 0 0 1-.201 6.843l-16.69 16.69a3.137 3.137 0 0 1-1.393.808l-7.134 1.946a1.046 1.046 0 0 1-1.284-1.284l1.946-7.134a3.137 3.137 0 0 1 .808-1.393l16.69-16.69a4.99 4.99 0 0 1 6.843-.2zM20.13 7.772 6.27 21.63a1.046 1.046 0 0 0-.27.465l-1.463 5.367 5.368-1.464c.175-.047.335-.14.464-.269L24.228 11.87 20.13 7.772zM8.31 14.659 6.22 16.751H3.047a1.046 1.046 0 1 1 0-2.091l5.264-.001zm5.578-5.578-2.092 2.092h-8.75a1.046 1.046 0 1 1 0-2.091h10.842zm9.072-4.14-1.353 1.351 4.098 4.1 1.353-1.353a2.898 2.898 0 1 0-4.098-4.098zm-3.494-1.438-2.092 2.092H3.047a1.046 1.046 0 0 1 0-2.091h16.42z" fill="#fff"/>
</svg>
