<svg width="20" height="20" viewBox="0 0 20 20" fill="none" xmlns="http://www.w3.org/2000/svg">
    <path fill-rule="evenodd" clip-rule="evenodd" d="M19.6 10.228c0-.71-.064-1.391-.182-2.046H10v3.868h5.382a4.6 4.6 0 0 1-1.996 3.018v2.51h3.232c1.891-1.741 2.982-4.305 2.982-7.35z" fill="#4285F4"/>
    <path fill-rule="evenodd" clip-rule="evenodd" d="M10 20c2.7 0 4.963-.896 6.617-2.423l-3.231-2.509c-.896.6-2.041.955-3.387.955-2.604 0-4.809-1.76-5.595-4.123H1.063v2.59A9.996 9.996 0 0 0 9.999 20z" fill="#34A853"/>
    <path fill-rule="evenodd" clip-rule="evenodd" d="M4.405 11.9c-.2-.6-.314-1.24-.314-1.9 0-.659.114-1.3.314-1.9V5.51H1.064A9.996 9.996 0 0 0 0 10c0 1.614.386 3.141 1.064 4.491l3.34-2.59z" fill="#FBBC05"/>
    <path fill-rule="evenodd" clip-rule="evenodd" d="M10 3.977c1.467 0 2.786.505 3.822 1.496l2.868-2.868C14.958.99 12.695 0 10 0 6.09 0 2.707 2.24 1.062 5.51l3.34 2.59C5.19 5.736 7.396 3.977 10 3.977z" fill="#EA4335"/>
</svg>
