<svg width="20" height="20" viewBox="0 0 20 20" fill="none" xmlns="http://www.w3.org/2000/svg">
    <path fill-rule="evenodd" clip-rule="evenodd" d="M10 3C8.264 3 6.857 4.475 6.857 6.294c0 1.82 1.407 3.294 3.143 3.294 1.736 0 3.143-1.475 3.143-3.294C13.143 4.474 11.736 3 10 3zM7.643 6.294c0-1.364 1.055-2.47 2.357-2.47 1.302 0 2.357 1.106 2.357 2.47 0 1.365-1.055 2.47-2.357 2.47-1.302 0-2.357-1.105-2.357-2.47zM6.078 11.235c-.868 0-1.578.73-1.578 1.647 0 1.393.654 2.443 1.678 3.127C7.184 16.682 8.543 17 10 17c1.457 0 2.815-.318 3.822-.991 1.024-.684 1.678-1.734 1.678-3.127 0-.91-.704-1.647-1.571-1.647h-7.85zm-.792 1.647c0-.455.352-.823.792-.823h7.85c.434 0 .786.369.786.823 0 1.078-.489 1.881-1.314 2.433-.841.562-2.037.862-3.4.862s-2.559-.3-3.4-.862c-.825-.552-1.314-1.355-1.314-2.433z" fill="#000"/>
    <path clip-rule="evenodd" d="M10 3C8.264 3 6.857 4.475 6.857 6.294c0 1.82 1.407 3.294 3.143 3.294 1.736 0 3.143-1.475 3.143-3.294C13.143 4.474 11.736 3 10 3zM7.643 6.294c0-1.364 1.055-2.47 2.357-2.47 1.302 0 2.357 1.106 2.357 2.47 0 1.365-1.055 2.47-2.357 2.47-1.302 0-2.357-1.105-2.357-2.47zM6.078 11.235c-.868 0-1.578.73-1.578 1.647 0 1.393.654 2.443 1.678 3.127C7.184 16.682 8.543 17 10 17c1.457 0 2.815-.318 3.822-.991 1.024-.684 1.678-1.734 1.678-3.127 0-.91-.704-1.647-1.571-1.647h-7.85zm-.792 1.647c0-.455.352-.823.792-.823h7.85c.434 0 .786.369.786.823 0 1.078-.489 1.881-1.314 2.433-.841.562-2.037.862-3.4.862s-2.559-.3-3.4-.862c-.825-.552-1.314-1.355-1.314-2.433z" stroke="#000" stroke-width=".5" stroke-linejoin="round"/>
</svg>
